USFL
nRows=223
nColumns=2
inDegrees=yes
endheader
time	tib_ant_r	
3.06048	 87.703893	
3.09375	 87.712042	
3.12702	 87.711547	
3.16028	 87.695797	
3.19355	 87.694595	
3.22681	 87.705015	
3.26008	 87.678367	
3.29335	 87.718944	
3.32661	 87.734149	
3.35988	 87.742091	
3.39315	 87.714197	
3.42641	 87.702222	
3.45968	 87.718300	
3.49294	 87.692574	
3.52621	 87.680563	
3.55948	 87.696699	
3.59274	 87.701857	
3.62601	 87.683976	
3.65927	 87.670286	
3.69254	 87.677132	
3.72581	 87.743657	
3.75907	 87.744455	
3.79234	 87.734294	
3.8256	 87.746293	
3.85887	 87.717576	
3.89214	 87.705404	
3.9254	 87.723721	
3.95867	 87.722415	
3.99194	 87.702853	
4.0252	 87.714427	
4.05847	 87.716538	
4.09173	 87.705056	
4.125	 87.759678	
4.15827	 87.733387	
4.19153	 87.748086	
4.2248	 87.734759	
4.25806	 87.714162	
4.29133	 87.703274	
4.3246	 87.620425	
4.35786	 87.557849	
4.39113	 87.572715	
4.4244	 87.508606	
4.45766	 87.439373	
4.49093	 87.442671	
4.52419	 87.293553	
4.55746	 87.351181	
4.59073	 87.206463	
4.62399	 87.212336	
4.65726	 87.222017	
4.69052	 87.150716	
4.72379	 87.117851	
4.75706	 87.125559	
4.79032	 87.014357	
4.82359	 87.076656	
4.85685	 87.071798	
4.89012	 87.132324	
4.92339	 87.271188	
4.95665	 87.060390	
4.98992	 87.072604	
5.02319	 87.155809	
5.05645	 86.938678	
5.08972	 86.923467	
5.12298	 86.948366	
5.15625	 86.710071	
5.18952	 86.766272	
5.22278	 86.716369	
5.25605	 86.846799	
5.28931	 86.888094	
5.32258	 86.793722	
5.35585	 87.215446	
5.38911	 87.247000	
5.42238	 87.110875	
5.45565	 87.622335	
5.48891	 88.031809	
5.52218	 58.271694	
5.55544	 58.411481	
5.58871	 58.547113	
5.62198	 58.602774	
5.65524	 58.635273	
5.68851	 58.687194	
5.72177	 58.683689	
5.75504	 58.521127	
5.78831	 58.332074	
5.82157	 58.222645	
5.85484	 58.007402	
5.8881	 58.230437	
5.92137	 58.058834	
5.95464	 57.898788	
5.9879	 57.853376	
6.02117	 57.676219	
6.05444	 57.387535	
6.0877	 57.115192	
6.12097	 56.568155	
6.15423	 56.502145	
6.1875	 56.376331	
6.22077	 56.421343	
6.25403	 56.142577	
6.2873	 55.939357	
6.32056	 55.944626	
6.35383	 55.936916	
6.3871	 55.952387	
6.42036	 56.084491	
6.45363	 55.984414	
6.4869	 55.959829	
6.52016	 56.036307	
6.55343	 56.056154	
6.58669	 55.911798	
6.61996	 56.059717	
6.65323	 55.848168	
6.68649	 55.906668	
6.71976	 55.717721	
6.75302	 55.714516	
6.78629	 55.601440	
6.81956	 55.810566	
6.85282	 55.818639	
6.88609	 55.725064	
6.91935	 55.565360	
6.95262	 55.460764	
6.98589	 55.437785	
7.01915	 55.433594	
7.05242	 55.412962	
7.08569	 55.330580	
7.11895	 55.288719	
7.15222	 55.219587	
7.18548	 55.210221	
7.21875	 55.203298	
7.25202	 55.144206	
7.28528	 55.079375	
7.31855	 55.078810	
7.35181	 55.044088	
7.38508	 55.041600	
7.41835	 54.964108	
7.45161	 54.881312	
7.48488	 54.797539	
7.51815	 54.783857	
7.55141	 54.822593	
7.58468	 54.863874	
7.61794	 54.857105	
7.65121	 54.872385	
7.68448	 54.860718	
7.71774	 54.853852	
7.75101	 54.756131	
7.78427	 54.754612	
7.81754	 54.747251	
7.85081	 54.739525	
7.88407	 54.757638	
7.91734	 54.698777	
7.9506	 54.665210	
7.98387	 54.669546	
8.01714	 54.644729	
8.0504	 54.616853	
8.08367	 54.639598	
8.11694	 54.588995	
8.1502	 54.682434	
8.18347	 54.709725	
8.21673	 54.715220	
8.25	 54.749458	
8.28327	 54.727545	
8.31653	 54.721109	
8.3498	 54.716632	
8.38306	 54.683588	
8.41633	 54.642458	
8.4496	 54.585586	
8.48286	 54.627657	
8.51613	 54.695413	
8.5494	 54.879100	
8.58266	 54.926883	
8.61593	 54.943211	
8.64919	 55.012825	
8.68246	 54.982827	
8.71573	 54.989846	
8.74899	 55.027952	
8.78226	 54.973177	
8.81552	 55.121163	
8.84879	 55.159853	
8.88206	 55.196640	
8.91532	 55.276124	
8.94859	 55.276624	
8.98185	 55.248701	
9.01512	 55.217108	
9.04839	 55.298882	
9.08165	 55.322909	
9.11492	 55.339624	
9.14819	 55.332247	
9.18145	 55.356454	
9.21472	 55.297954	
9.24798	 55.315710	
9.28125	 55.351360	
9.31452	 55.373904	
9.34778	 55.395531	
9.38105	 55.409271	
9.41431	 55.374002	
9.44758	 55.371941	
9.48085	 55.379084	
9.51411	 55.360190	
9.54738	 55.366095	
9.58065	 55.395822	
9.61391	 55.409121	
9.64718	 55.417589	
9.68044	 55.397504	
9.71371	 55.407476	
9.74698	 55.376512	
9.78024	 55.367904	
9.81351	 55.371519	
9.84677	 55.312272	
9.88004	 55.329499	
9.91331	 55.391668	
9.94657	 55.428293	
9.97984	 55.500371	
10.0131	 55.349973	
10.0464	 55.303930	
10.0796	 55.453067	
10.1129	 55.278328	
10.1462	 55.290405	
10.1794	 55.458639	
10.2127	 55.507684	
10.246	 55.663545	
10.2792	 55.679197	
10.3125	 55.674558	
10.3458	 55.747498	
10.379	 55.752580	
10.4123	 55.765218	
10.4456	 55.813304	
